<svg width="16" height="16" viewBox="0 0 16 16" fill="none" xmlns="http://www.w3.org/2000/svg">
<path fill-rule="evenodd" clip-rule="evenodd" d="M3.04016 4.25891H4.05173C4.35819 4.25891 4.60766 4.01635 4.60766 3.7163V0.54312C4.60766 0.242896 4.35819 0.00056 4.05173 0.00056H3.04016C2.73354 0.00056 2.48546 0.242896 2.48546 0.54312V3.7163C2.48546 4.01635 2.73354 4.25891 3.04016 4.25891ZM5.40941 8.46413C5.61418 8.46413 5.78059 8.62712 5.78059 8.82699V10.0945C5.78059 10.2956 5.61418 10.457 5.40941 10.457H4.11238C3.9077 10.457 3.74266 10.2956 3.74266 10.0945V8.82699C3.74266 8.62712 3.9077 8.46413 4.11238 8.46413H5.40941ZM8.64878 8.46413C8.85347 8.46413 9.01973 8.62712 9.01973 8.82699V10.0945C9.01973 10.2956 8.85347 10.457 8.64878 10.457H7.35298C7.14682 10.457 6.98056 10.2956 6.98056 10.0945V8.82699C6.98056 8.62712 7.14682 8.46413 7.35298 8.46413H8.64878ZM12.2577 8.82699C12.2577 8.62712 12.0915 8.46413 11.8868 8.46413H10.5909C10.3862 8.46413 10.2199 8.62712 10.2199 8.82699V10.0945C10.2199 10.2956 10.3862 10.457 10.5909 10.457H11.8868C12.0915 10.457 12.2577 10.2956 12.2577 10.0945V8.82699ZM5.40941 11.6318C5.61418 11.6318 5.78059 11.794 5.78059 11.9945V13.2617C5.78059 13.4617 5.61418 13.6245 5.40941 13.6245H4.11238C3.9077 13.6245 3.74266 13.4617 3.74266 13.2617V11.9945C3.74266 11.794 3.9077 11.6318 4.11238 11.6318H5.40941ZM9.01973 11.9945C9.01973 11.794 8.85347 11.6318 8.64878 11.6318H7.35298C7.14682 11.6318 6.98056 11.794 6.98056 11.9945V13.2617C6.98056 13.4617 7.14682 13.6245 7.35298 13.6245H8.64878C8.85347 13.6245 9.01973 13.4617 9.01973 13.2617V11.9945ZM11.8868 11.6318C12.0915 11.6318 12.2577 11.794 12.2577 11.9945V13.2617C12.2577 13.4617 12.0915 13.6245 11.8868 13.6245H10.5909C10.3862 13.6245 10.2199 13.4617 10.2199 13.2617V11.9945C10.2199 11.794 10.3862 11.6318 10.5909 11.6318H11.8868ZM14.5748 1.78208V3.7173C14.5748 4.5917 13.85 5.29643 12.9552 5.29643H11.9337C11.039 5.29643 10.3032 4.5917 10.3032 3.7173V1.77523H5.69616V3.7173C5.69616 4.5917 4.96134 5.29643 4.06662 5.29643H3.04382C2.15032 5.29643 1.4243 4.5917 1.4243 3.7173V1.78208C0.642432 1.80438 -0.000544 2.43738 -0.000544 3.21451V14.5575C-0.000544 15.3501 0.656112 15.9998 1.4664 15.9998H14.5328C15.3418 15.9998 15.9997 15.3484 15.9997 14.5575V3.21451C15.9997 2.43738 15.3579 1.80438 14.5748 1.78208ZM14.1021 13.851C14.1021 14.1932 13.8167 14.4711 13.4666 14.4711H2.50523C2.15398 14.4711 1.87114 14.1932 1.87114 13.851V7.99277C1.87114 7.6499 2.15398 7.37216 2.50523 7.37216H13.4666C13.8167 7.37216 14.1021 7.6499 14.1021 7.99277V13.851ZM12.9304 4.25891H11.9201C11.6137 4.25891 11.3641 4.01635 11.3641 3.7163V0.54312C11.3641 0.242896 11.6137 0.00056 11.9201 0.00056H12.9304C13.2369 0.00056 13.4876 0.242896 13.4876 0.54312V3.7163C13.4876 4.01635 13.2369 4.25891 12.9304 4.25891Z" fill="#CED0D4"/>
</svg>
