<svg width="28" height="21" viewBox="0 0 28 21" fill="none" xmlns="http://www.w3.org/2000/svg">
<path fill-rule="evenodd" clip-rule="evenodd" d="M5.84598 20.7288H15.3665L20.8892 20.725C23.9548 20.4699 26.4878 18.1688 27.0489 15.1319C27.704 11.5928 25.5223 8.17097 22.1254 7.24137C21.6836 4.74781 20.0986 2.63785 17.8039 1.52737C15.9212 0.61698 13.7978 0.495516 11.8255 1.1849C10.0421 1.80955 8.57394 3.02642 7.63322 4.64749C7.38374 4.59896 7.13062 4.57382 6.87478 4.57038C5.72939 4.58218 4.63966 4.99493 3.81797 5.80327C2.99897 6.60971 2.53968 7.68877 2.52484 8.84682C2.52484 9.14248 2.55475 9.43564 2.61416 9.72237C1.09634 10.8227 0.174272 12.607 0.170436 14.5079C0.165536 17.7373 2.57323 20.4098 5.84598 20.7288ZM4.90036 6.89755C5.4203 6.38736 6.10154 6.10882 6.82399 6.10882H6.85754C7.16643 6.11132 7.47062 6.16783 7.76227 6.27331L8.42136 6.51298L8.72416 5.88038C9.4563 4.34763 10.7397 3.19509 12.3357 2.63634C13.9192 2.08383 15.6208 2.18152 17.1299 2.91085C19.1094 3.86809 20.4326 5.75377 20.6696 7.95358L20.7303 8.52167L21.2939 8.6273C24.167 9.16474 26.0683 11.9576 25.5308 14.8521C25.0954 17.2101 23.1343 18.9957 20.826 19.1908L5.92292 19.194C3.51907 18.9579 1.70943 16.9447 1.7131 14.5113C1.71553 12.9506 2.55206 11.498 3.89637 10.7209L4.45718 10.3973L4.23248 9.79089C4.12224 9.49124 4.06622 9.17467 4.06745 8.8586C4.07624 8.11406 4.37293 7.41709 4.90036 6.89755ZM14.1215 17.996L17.6313 13.16C17.8127 12.9102 17.7579 12.5597 17.5084 12.3766C17.4117 12.306 17.2937 12.2683 17.1747 12.27H15.3689V6.77533H11.9633V12.27H10.16C9.85233 12.2666 9.60042 12.5165 9.5965 12.8259C9.5965 12.9462 9.63371 13.0633 9.70332 13.16L13.2132 17.996C13.3955 18.2494 13.7481 18.3044 13.9988 18.121C14.0459 18.086 14.0867 18.0437 14.1215 17.996Z" fill="#CED0D4"/>
</svg>
