<svg width="22" height="24" viewBox="0 0 22 24" fill="none" xmlns="http://www.w3.org/2000/svg">
<path fill-rule="evenodd" clip-rule="evenodd" d="M17.1165 15.4448C16.0343 15.4448 15.0167 15.8762 14.2509 16.6587C14.1292 16.7836 14.0137 16.9191 13.9046 17.0643L8.09006 13.4531C8.21176 13.0529 8.27383 12.6415 8.27383 12.224C8.27383 11.8073 8.21176 11.3951 8.09006 10.9957L13.9058 7.41259C14.6716 8.4359 15.8494 9.03614 17.1165 9.03614C19.353 9.03614 21.17 7.17576 21.17 4.88894C21.17 2.6029 19.353 0.74292 17.1165 0.74292C14.8826 0.74292 13.0644 2.6029 13.0644 4.88894C13.0644 5.28646 13.1202 5.6815 13.2331 6.06607L7.40245 9.65926C6.63549 8.66263 5.47012 8.0772 4.22033 8.0772C1.9864 8.0772 0.168212 9.93794 0.168212 12.224C0.168212 14.5108 1.9864 16.3708 4.22033 16.3708C5.47012 16.3708 6.63425 15.7861 7.40124 14.7895L13.2331 18.4107C13.1202 18.7958 13.0644 19.1918 13.0644 19.591C13.0644 20.6994 13.4862 21.7404 14.2509 22.5229C15.0167 23.3072 16.0343 23.738 17.1165 23.738C18.1987 23.738 19.2165 23.3072 19.9822 22.5229C20.7468 21.7404 21.17 20.6994 21.17 19.591C21.17 18.4834 20.7468 17.442 19.9822 16.6587C19.2165 15.8762 18.1987 15.4448 17.1165 15.4448Z" fill="#CED0D4"/>
</svg>
