<svg width="13" height="14" viewBox="0 0 13 14" fill="none" xmlns="http://www.w3.org/2000/svg">
<path fill-rule="evenodd" clip-rule="evenodd" d="M12.4108 5.43015L8.83645 5.07373C8.61181 5.05241 8.41812 4.90144 8.32506 4.67471L7.04555 1.40326C6.84061 0.862798 6.11337 0.862798 5.90867 1.40326L4.63909 4.67471C4.5571 4.90144 4.35233 5.05241 4.1277 5.07373L0.553358 5.43015C0.020878 5.48421 -0.19383 6.18574 0.204633 6.56495L2.89907 9.05815C3.0716 9.22034 3.14464 9.45776 3.09252 9.69554L2.28467 13.1939C2.16181 13.7447 2.72402 14.1983 3.19569 13.9063L6.1754 12.0604C6.36918 11.9409 6.60497 11.9409 6.79974 12.0604L9.77963 13.9063C10.2511 14.1983 10.8134 13.7559 10.6906 13.1939L9.89134 9.69554C9.84029 9.45776 9.91234 9.22034 10.0861 9.05815L12.7793 6.56495C13.169 6.18574 12.9431 5.48421 12.4108 5.43015Z" fill="white"/>
</svg>
