<svg width="18" height="14" viewBox="0 0 18 14" fill="none" xmlns="http://www.w3.org/2000/svg">
<path fill-rule="evenodd" clip-rule="evenodd" d="M7.12793 0.840896L0.350532 7.43898C0.117108 7.67869 0.000522 7.95948 0.000522 8.27968C0.000522 8.60619 0.117108 8.88318 0.350532 9.11144L5.0045 13.6576C5.25137 13.8859 5.53829 13.9996 5.86715 13.9996C6.09422 13.9996 6.28043 13.9568 6.42674 13.8703C6.572 13.7841 6.73949 13.6451 6.92935 13.4543L2.47388 9.11144C2.23933 8.88318 2.12272 8.60619 2.12272 8.27968C2.12272 7.95948 2.23933 7.67869 2.47388 7.43898L9.25038 0.840896C9.49106 0.606732 9.81382 0.407806 10.2184 0.24423C10.6229 0.081648 10.9916 0.000196 11.3266 0.000196H9.20439C8.86918 0.000196 8.49946 0.081648 8.09471 0.24423C7.69021 0.407806 7.36747 0.606732 7.12793 0.840896ZM3.99058 7.43898C3.75714 7.67869 3.64055 7.95948 3.64055 8.27968C3.64055 8.60619 3.75714 8.88318 3.99058 9.11144L8.64454 13.6576C8.89034 13.8859 9.17833 13.9996 9.50719 13.9996C9.84231 13.9996 10.1264 13.8859 10.3598 13.6576L17.1375 7.04148C17.3769 6.81359 17.5817 6.50272 17.7481 6.10807C17.9168 5.71361 18 5.35339 18 5.02729V1.18283C18 0.862036 17.8796 0.58541 17.6388 0.351022C17.3991 0.117096 17.1151 0.000196 16.7862 0.000196H12.8432C12.5095 0.000196 12.1395 0.081648 11.7338 0.24423C11.3304 0.407806 11.0077 0.606732 10.7682 0.840896L3.99058 7.43898ZM14.9668 4.13991C14.6317 4.13991 14.3461 4.02401 14.1091 3.79324C13.872 3.56234 13.7542 3.28362 13.753 2.95711C13.753 2.63024 13.872 2.35155 14.1091 2.1212C14.3461 1.88968 14.6317 1.77372 14.9668 1.77372C15.3005 1.77372 15.5872 1.88968 15.8243 2.1212C16.0614 2.35155 16.1792 2.63024 16.1792 2.95711C16.1792 3.28362 16.0614 3.56234 15.8243 3.79324C15.5872 4.02401 15.3005 4.13991 14.9668 4.13991Z" fill="#CED0D4"/>
</svg>
