<svg width="24" height="22" viewBox="0 0 24 22" fill="none" xmlns="http://www.w3.org/2000/svg">
<path fill-rule="evenodd" clip-rule="evenodd" d="M23.1644 7.83224C23.1644 7.53564 23.142 7.34092 23.1247 7.22951H23.1259C23.1247 7.21945 23.1221 7.21068 23.1209 7.20058C23.1209 7.19563 23.1209 7.18441 23.1196 7.17944C22.9383 5.36041 22.1876 3.76275 21.0371 2.61114C19.8778 1.44756 18.2993 0.743754 16.563 0.745096C14.6255 0.745096 12.8385 1.60728 11.6135 3.02067C10.4159 1.59951 8.6759 0.742412 6.76572 0.745096C5.02951 0.743336 3.45209 1.4472 2.29298 2.61021C1.14122 3.76182 0.391584 5.35889 0.211728 7.17757C0.210264 7.18095 0.20904 7.19143 0.20904 7.19503C0.207816 7.2063 0.205368 7.21734 0.204168 7.22951H0.205368C0.186888 7.34261 0.16572 7.53621 0.16572 7.83376C0.16572 8.26918 0.2154 8.89172 0.403968 9.6734C0.885648 11.6674 1.99874 13.4765 3.60588 14.8985V14.8974L11.0984 21.5377C11.3839 21.7876 11.812 21.7903 12.0964 21.5417L19.7178 14.9021L19.7227 14.8985C21.33 13.4765 22.4432 11.6674 22.9249 9.6734V9.67417C23.1148 8.89172 23.1644 8.26767 23.1644 7.83224ZM21.4764 9.33929V9.34006C21.0656 11.0365 20.1187 12.5843 18.7224 13.8209L18.7275 13.817L11.6037 20.0208L4.6063 13.8209V13.8204C3.2101 12.5843 2.2631 11.0365 1.85347 9.34006C1.6909 8.67106 1.65384 8.16141 1.65384 7.83376C1.65384 7.58342 1.67599 7.43853 1.6811 7.41037L1.68722 7.3599C1.83002 5.82644 2.45436 4.53072 3.35909 3.62512C4.26629 2.72045 5.44279 2.20108 6.76572 2.19974C8.5033 2.20242 10.0385 3.09377 10.9631 4.62821C11.0948 4.84999 11.3379 4.98727 11.6023 4.98839C11.8654 4.98973 12.1086 4.85494 12.2439 4.6343C13.1674 3.1284 14.7932 2.19974 16.563 2.19974C17.8885 2.20108 19.0624 2.7212 19.971 3.62663C20.8769 4.53072 21.5 5.82644 21.6414 7.3599L21.649 7.40997C21.6539 7.43853 21.6762 7.58342 21.6762 7.83224C21.6762 8.16103 21.6378 8.67049 21.4764 9.33929Z" fill="#CED0D4"/>
</svg>
